<svg width="432" height="467" viewBox="0 0 432 467" fill="none" xmlns="http://www.w3.org/2000/svg">
<path d="M215.715 431.43C334.851 431.43 431.429 334.852 431.429 215.716C431.429 96.579 334.851 0 215.715 0C96.579 0 0 96.579 0 215.716C0 334.852 96.579 431.43 215.715 431.43Z" fill="#E6AB39" fill-opacity="0.15"/>
<path d="M69.5533 255.135C68.8677 255.047 67.1384 254.68 65.9044 253.167C65.0271 252.092 64.8168 250.925 64.7694 250.326C64.7295 249.82 64.2901 249.428 63.7619 249.428C63.2332 249.428 62.7943 249.82 62.754 250.326C62.7066 250.926 62.4962 252.092 61.6194 253.167C60.385 254.68 58.6561 255.047 57.9701 255.135C57.4676 255.199 57.0928 255.611 57.0928 256.097C57.0928 256.585 57.4676 256.996 57.9701 257.06C58.6561 257.148 60.385 257.515 61.6194 259.028C62.4962 260.103 62.7066 261.27 62.754 261.87C62.7943 262.376 63.2337 262.767 63.7619 262.767C64.2901 262.767 64.7295 262.376 64.7694 261.87C64.8168 261.27 65.0271 260.103 65.9044 259.028C67.1389 257.515 68.8677 257.148 69.5533 257.06C70.0557 256.996 70.4311 256.585 70.4311 256.097C70.4311 255.611 70.0557 255.199 69.5533 255.135Z" fill="#A8E8AB"/>
<path d="M244.919 90.1569C243.5 89.9752 239.92 89.216 237.366 86.0843C235.55 83.8579 235.115 81.4426 235.016 80.203C234.934 79.1546 234.024 78.3432 232.931 78.3432C231.837 78.3432 230.928 79.1546 230.845 80.203C230.746 81.4436 230.311 83.859 228.496 86.0843C225.941 89.216 222.362 89.9752 220.942 90.1569C219.902 90.2895 219.126 91.1416 219.126 92.1493C219.126 93.1581 219.902 94.0091 220.942 94.1428C222.362 94.3245 225.941 95.0847 228.496 98.2154C230.311 100.442 230.746 102.856 230.845 104.098C230.928 105.146 231.838 105.955 232.931 105.955C234.024 105.955 234.934 105.146 235.016 104.098C235.115 102.856 235.55 100.442 237.366 98.2164C239.921 95.0847 243.5 94.3234 244.919 94.1428C245.959 94.0102 246.736 93.1581 246.736 92.1493C246.736 91.1416 245.959 90.2895 244.919 90.1569Z" fill="#A8E8AB"/>
<path d="M309.184 192.66C307.883 192.494 304.603 191.798 302.262 188.928C300.598 186.888 300.199 184.674 300.109 183.538C300.033 182.578 299.2 181.834 298.198 181.834C297.195 181.834 296.362 182.578 296.286 183.538C296.196 184.675 295.797 186.889 294.133 188.928C291.792 191.798 288.512 192.494 287.211 192.66C286.257 192.782 285.546 193.563 285.546 194.486C285.546 195.411 286.257 196.191 287.211 196.313C288.512 196.48 291.792 197.176 294.133 200.045C295.797 202.086 296.196 204.298 296.286 205.436C296.362 206.397 297.196 207.139 298.198 207.139C299.2 207.139 300.033 206.397 300.109 205.436C300.199 204.298 300.598 202.086 302.262 200.046C304.604 197.176 307.883 196.479 309.184 196.313C310.137 196.192 310.849 195.411 310.849 194.486C310.849 193.563 310.137 192.782 309.184 192.66Z" fill="#A8E8AB"/>
<path d="M371.627 281.65L359.492 289.738C358.24 290.602 356.483 290.602 355.23 289.738L343.098 281.649C341.352 280.486 340.879 278.127 342.042 276.381C343.205 274.635 345.565 274.164 347.311 275.327L353.562 279.495V254.174C353.562 252.076 355.263 250.375 357.362 250.375C359.461 250.375 361.161 252.076 361.161 254.174V279.495L367.412 275.327C369.158 274.164 371.516 274.635 372.679 276.381C373.844 278.127 373.373 280.486 371.627 281.65Z" fill="#26C52C"/>
<path d="M301.139 134.41L289.005 142.498C287.753 143.362 285.996 143.362 284.743 142.498L272.61 134.409C270.864 133.246 270.391 130.887 271.555 129.141C272.718 127.395 275.078 126.924 276.824 128.087L283.075 132.255V106.934C283.075 104.836 284.776 103.135 286.875 103.135C288.974 103.135 290.674 104.836 290.674 106.934V132.255L296.925 128.087C298.671 126.924 301.029 127.395 302.192 129.141C303.356 130.887 302.885 133.246 301.139 134.41Z" fill="#26C52C"/>
<path d="M102.159 192.352C100.064 192.352 98.3652 194.064 98.3652 196.176V211.474C98.3652 213.586 100.064 215.298 102.159 215.298H109.743C107.649 215.298 105.951 217.01 105.951 219.122V234.42C105.951 236.532 107.649 238.244 109.743 238.244H102.159C100.064 238.244 98.3652 239.957 98.3652 242.069V257.367C98.3652 259.479 100.064 261.191 102.159 261.191H117.33C115.235 261.191 113.536 262.905 113.536 265.016V280.313C113.536 282.426 115.235 284.138 117.33 284.138H102.159C100.064 284.138 98.3652 285.85 98.3652 287.963V303.26C98.3652 305.372 100.064 307.085 102.159 307.085H109.743C107.649 307.085 105.951 308.798 105.951 310.909V326.208C105.951 328.319 107.649 330.032 109.743 330.032H102.159C100.064 330.032 98.3652 331.743 98.3652 333.856V349.153C98.3652 351.266 100.064 352.978 102.159 352.978H117.33C115.235 352.978 113.536 354.691 113.536 356.802V372.101C113.536 374.212 115.235 375.925 117.33 375.925H231.113C233.208 375.925 234.908 374.212 234.908 372.101V265.015C234.908 262.904 233.208 261.191 231.113 261.191H215.942C218.037 261.191 219.735 259.478 219.735 257.366V242.069C219.735 239.957 218.037 238.244 215.942 238.244H223.528C225.622 238.244 227.32 236.532 227.32 234.42V219.122C227.32 217.01 225.622 215.298 223.528 215.298H215.942C218.037 215.298 219.735 213.585 219.735 211.473V196.175C219.735 194.063 218.037 192.351 215.942 192.351L102.159 192.352Z" fill="#E6AB39"/>
<path d="M212.15 215.298H204.565C202.47 215.298 200.772 217.011 200.772 219.122V234.421C200.772 236.531 202.469 238.243 204.561 238.245H196.979C194.885 238.245 193.186 239.957 193.186 242.07V257.366C193.186 259.479 194.885 261.191 196.979 261.191H204.565C206.66 261.191 208.358 259.48 208.358 257.366V242.07C208.358 239.958 206.662 238.248 204.568 238.245H212.15C214.245 238.245 215.943 236.532 215.944 234.421V219.122C215.944 217.011 214.245 215.298 212.15 215.298Z" fill="white"/>
<path d="M196.979 215.298H204.564C206.659 215.298 208.357 213.586 208.357 211.474V196.176C208.357 194.064 206.659 192.351 204.564 192.351H196.979C194.884 192.351 193.186 194.064 193.186 196.176V211.474C193.186 213.586 194.884 215.298 196.979 215.298Z" fill="white"/>
<path d="M151.465 192.353H102.159C100.064 192.353 98.3652 194.065 98.3652 196.177V211.475C98.3652 213.587 100.064 215.299 102.159 215.299H109.743C107.65 215.299 105.952 217.011 105.952 219.123V234.421C105.952 236.533 107.65 238.245 109.743 238.245H102.159C100.064 238.245 98.3652 239.958 98.3652 242.07V257.368C98.3652 259.48 100.064 261.191 102.159 261.191H117.33C115.235 261.191 113.537 262.906 113.537 265.017V280.314C113.537 282.427 115.235 284.139 117.33 284.139H102.159C100.064 284.139 98.3652 285.851 98.3652 287.964V303.261C98.3652 305.373 100.064 307.086 102.159 307.086H109.743C107.65 307.086 105.952 308.799 105.952 310.91V326.209C105.952 328.32 107.65 330.033 109.743 330.033H102.159C100.064 330.033 98.3652 331.744 98.3652 333.857V349.154C98.3652 351.266 100.064 352.979 102.159 352.979H117.33C115.235 352.979 113.537 354.692 113.537 356.803V372.101C113.537 374.213 115.235 375.924 117.33 375.924H166.637C164.542 375.924 162.843 374.213 162.843 372.101V356.803C162.843 354.692 164.542 352.979 166.637 352.979H151.465C149.371 352.979 147.672 351.266 147.672 349.154V333.857C147.672 331.744 149.371 330.033 151.465 330.033H159.051C156.956 330.033 155.257 328.32 155.257 326.209V310.91C155.257 308.799 156.956 307.086 159.051 307.086H151.465C149.371 307.086 147.672 305.373 147.672 303.261V287.964C147.672 285.851 149.371 284.139 151.465 284.139H166.637C164.542 284.139 162.843 282.427 162.843 280.314V265.017C162.843 262.906 164.542 261.191 166.637 261.191H151.465C149.371 261.191 147.672 259.48 147.672 257.368V242.07C147.672 239.958 149.371 238.245 151.465 238.245H159.051C156.956 238.245 155.257 236.533 155.257 234.421V219.123C155.257 217.011 156.956 215.299 159.051 215.299H151.465C149.371 215.299 147.672 213.587 147.672 211.475V196.177C147.672 194.065 149.37 192.353 151.465 192.353Z" fill="#EEC474"/>
<path d="M161.111 192.351C159.016 192.351 157.318 190.638 157.318 188.528V173.229C157.318 171.118 159.016 169.404 161.111 169.404H111.804C109.71 169.404 108.013 171.118 108.013 173.229V188.528C108.013 190.638 109.71 192.351 111.804 192.351H145.94H161.111Z" fill="#EEC474"/>
<path d="M225.588 169.403H214.209H206.624H161.111C159.016 169.403 157.317 171.118 157.317 173.229V188.526C157.317 190.637 159.016 192.352 161.11 192.352H206.624H210.425C210.423 192.352 210.421 192.351 210.418 192.351H214.218H225.589C227.683 192.352 229.381 190.637 229.381 188.526V173.229C229.381 171.118 227.682 169.403 225.588 169.403Z" fill="#E6AB39"/>
<path d="M202.832 173.229V188.527C202.832 190.638 204.53 192.352 206.624 192.352H210.425C210.423 192.352 210.421 192.351 210.418 192.351H214.218C216.309 192.346 218.002 190.636 218.002 188.527V173.229C218.002 171.118 216.305 169.404 214.21 169.404H206.624C204.53 169.404 202.832 171.118 202.832 173.229Z" fill="white"/>
<path d="M257.777 344.857C291.293 344.857 318.462 317.461 318.462 283.666C318.462 249.872 291.293 222.478 257.777 222.479C224.262 222.479 197.092 249.874 197.092 283.668C197.092 317.464 224.262 344.858 257.777 344.857Z" fill="#EEC474"/>
<path d="M257.777 337.21C287.103 337.209 310.877 313.237 310.877 283.667C310.877 254.097 287.103 230.126 257.777 230.127C228.451 230.127 204.678 254.099 204.678 283.669C204.678 313.239 228.451 337.21 257.777 337.21Z" fill="#E6AB39"/>
<path d="M257.778 329.56C282.914 329.56 303.292 309.013 303.292 283.667C303.292 258.321 282.914 237.775 257.778 237.776C232.641 237.776 212.264 258.323 212.264 283.669C212.264 309.015 232.641 329.561 257.778 329.56Z" fill="white"/>
<path d="M208.072 354.569L251.13 354.569C260.851 354.568 269.129 347.011 269.473 337.297C269.837 327.096 261.677 318.717 251.56 318.717L208.657 318.718C196.417 318.718 184.677 323.579 176.024 332.234L130.329 377.928L170.037 417.633L189.541 398.131L246.351 398.13C258.59 398.13 270.329 393.267 278.982 384.613L332.205 331.391C339.359 324.236 339.203 312.54 331.735 305.585C324.621 298.96 313.421 299.469 306.547 306.343L266.78 346.11" fill="#F8DBBB"/>
<path d="M331.735 305.583L263.302 374.015L207.755 374.058L208.072 354.569L251.13 354.568C257.52 354.568 263.286 351.301 266.586 346.303L306.548 306.342C313.422 299.468 324.621 298.959 331.735 305.583Z" fill="#E6AB39" fill-opacity="0.25"/>
<path d="M128.368 361.151L189.786 422.569L146.543 466.11L85.1251 404.693L128.368 361.151Z" fill="#E6AB39"/>
<path d="M158.094 433.209C162.283 433.209 165.678 429.814 165.678 425.625C165.678 421.437 162.283 418.042 158.094 418.042C153.906 418.042 150.511 421.437 150.511 425.625C150.511 429.814 153.906 433.209 158.094 433.209Z" fill="white"/>
</svg>
